<svg xmlns="http://www.w3.org/2000/svg" xmlns:xlink="http://www.w3.org/1999/xlink" viewBox="0 0 140 140"><defs><style>.a{fill:url(#a);}.b{fill:#fff;}.c{fill:url(#b);}</style><linearGradient id="a" x1="1" x2="0" y2="1" gradientUnits="objectBoundingBox"><stop offset="0" stop-color="#ef5483"/><stop offset="0.506" stop-color="#f47d8a"/><stop offset="0.816" stop-color="#f89c90"/><stop offset="1" stop-color="#ffcc98"/></linearGradient><linearGradient id="b" x1="0.5" x2="0.5" y2="1" gradientUnits="objectBoundingBox"><stop offset="0" stop-color="#fff"/><stop offset="1" stop-color="#fff" stop-opacity="0.749"/></linearGradient></defs><g transform="translate(-1 -1)"><path class="a" d="M23.333,0h93.333A23.333,23.333,0,0,1,140,23.333v93.333A23.333,23.333,0,0,1,116.667,140H23.333A23.333,23.333,0,0,1,0,116.667V23.333A23.333,23.333,0,0,1,23.333,0Z" transform="translate(1 1)"/><g transform="translate(-977.776 -538.861)"><g transform="translate(1032.087 628.874)"><g transform="translate(0 0)"><path class="b" d="M10.56,8.655A41.266,41.266,0,0,1,.513,7.548a1.755,1.755,0,0,1,0-2.479L5.568.014c1.494.032,3.023.048,4.546.048,1.724,0,3.461-.021,5.163-.062l5.069,5.069a1.755,1.755,0,0,1,0,2.479A38.846,38.846,0,0,1,10.56,8.655Z" transform="translate(0 0)"/></g></g><path class="c" d="M31.238,49.279h0C16.19,49.279,0,47.668,0,44.131V5.564C0,3.875,3.523,2.441,10.188,1.418A156.547,156.547,0,0,1,32.42,0,141.676,141.676,0,0,1,53.572,1.367c6.24,1,9.538,2.451,9.538,4.2V36.91c-1.432-.121-2.955-.183-4.527-.183-6.8,0-12.634,1.082-15.6,2.894-.415.28-.38,5.237-.277,9.346C39.044,49.174,35.186,49.279,31.238,49.279Z" transform="translate(1010.962 577.027)"/><path class="c" d="M28.015,6.122v17.12c0,3.006-28.015,3.088-28.015,0V6.122C0,2.95,28.015,2.709,28.015,6.122Z" transform="translate(1056.575 613.155)"/><path class="b" d="M4.688,3.842a18.318,18.318,0,0,1-4.46-.491.779.779,0,0,1,0-1.1L2.472.006C3.135.02,3.813.027,4.49.027,5.255.027,6.026.018,6.782,0l2.25,2.25a.779.779,0,0,1,0,1.1A17.244,17.244,0,0,1,4.688,3.842Z" transform="translate(1065.952 640.699)"/></g></g></svg>