<svg xmlns="http://www.w3.org/2000/svg" xmlns:xlink="http://www.w3.org/1999/xlink" viewBox="0 0 140.001 140"><defs><style>.a{fill:url(#a);}.b{opacity:0.5;}.b,.c,.d{fill:url(#b);}.d{opacity:0.75;}</style><linearGradient id="a" x1="1" x2="0" y2="1" gradientUnits="objectBoundingBox"><stop offset="0" stop-color="#fcaf61"/><stop offset="0.64" stop-color="#fed972"/><stop offset="1" stop-color="#ffff82"/></linearGradient><linearGradient id="b" x1="0.5" x2="0.5" y2="1" gradientUnits="objectBoundingBox"><stop offset="0" stop-color="#fff"/><stop offset="1" stop-color="#fff" stop-opacity="0.8"/></linearGradient></defs><g transform="translate(0 0)"><path class="a" d="M23.333,0h93.333A23.333,23.333,0,0,1,140,23.333v93.333A23.333,23.333,0,0,1,116.667,140H23.333A23.333,23.333,0,0,1,0,116.667V23.333A23.333,23.333,0,0,1,23.333,0Z" transform="translate(0)"/><path class="b" d="M-470.575-451.242a23.333,23.333,0,0,1-23.333-23.333v-33.591c7.5-2.571,14.888-9.626,23.1-16.681,12.576-10.807,27.084-21.613,46.9-16.3,32.612,8.739,48.291-31.039,66.55-38.976a23.226,23.226,0,0,1,3.451,12.218v93.334a23.333,23.333,0,0,1-23.333,23.333Z" transform="translate(493.908 591.242)"/><path class="c" d="M-384.191-502.079h-93.334a23.284,23.284,0,0,1-7.7-1.3,23.241,23.241,0,0,1-6.616-3.605,23.412,23.412,0,0,1-5.094-5.471,23.184,23.184,0,0,1-3.13-6.9c6.221-2.481,12.565-8.1,19.28-14.052l.013-.012c1.213-1.075,2.467-2.186,3.73-3.287,5.242-4.57,10.978-9.292,17.408-12.867,7.08-3.936,13.917-5.849,20.9-5.849a40.775,40.775,0,0,1,10.537,1.429,37.876,37.876,0,0,0,9.787,1.329c18.256,0,31.925-14.453,42.909-26.065,5.19-5.487,10.092-10.67,14.638-13.423v66.734a23.179,23.179,0,0,1-6.834,16.5A23.181,23.181,0,0,1-384.191-502.079Zm-6.708-49.9a12.121,12.121,0,0,0-8.626,3.572,12.12,12.12,0,0,0-3.573,8.626,12.1,12.1,0,0,0,2.13,6.893l-8.3,8.3a2.48,2.48,0,0,0-.732,1.767,2.485,2.485,0,0,0,.733,1.768,2.483,2.483,0,0,0,1.768.732,2.483,2.483,0,0,0,1.768-.732l8.371-8.37a12.149,12.149,0,0,0,6.457,1.843,12.118,12.118,0,0,0,8.626-3.573,12.121,12.121,0,0,0,3.572-8.626,12.122,12.122,0,0,0-3.573-8.626A12.12,12.12,0,0,0-390.9-551.977Zm0,19.733h0a7.488,7.488,0,0,1-5.33-2.2,7.488,7.488,0,0,1-2.2-5.331,7.486,7.486,0,0,1,2.2-5.33,7.487,7.487,0,0,1,5.33-2.2,7.487,7.487,0,0,1,5.33,2.2,7.548,7.548,0,0,1,0,10.661A7.487,7.487,0,0,1-390.9-532.245Z" transform="translate(500.858 642.078)"/><path class="d" d="M-384.191-502.078h-93.334a23.181,23.181,0,0,1-16.5-6.834,23.179,23.179,0,0,1-6.834-16.5v-13.638c6.48-2.307,13.079-8.154,20.066-14.345l0,0c1.219-1.08,2.48-2.2,3.748-3.3,5.241-4.57,10.978-9.292,17.408-12.867,7.079-3.936,13.917-5.849,20.9-5.849a40.777,40.777,0,0,1,10.537,1.429,37.874,37.874,0,0,0,9.787,1.329c18.256,0,31.925-14.452,42.909-26.065,5.19-5.487,10.092-10.67,14.638-13.423v86.734a23.179,23.179,0,0,1-6.834,16.5A23.181,23.181,0,0,1-384.191-502.078Zm-6.708-49.9a12.121,12.121,0,0,0-8.626,3.572,12.12,12.12,0,0,0-3.573,8.626,12.1,12.1,0,0,0,2.13,6.893l-8.3,8.3a2.48,2.48,0,0,0-.732,1.767,2.485,2.485,0,0,0,.733,1.768,2.484,2.484,0,0,0,1.768.732,2.483,2.483,0,0,0,1.768-.732l8.371-8.37a12.149,12.149,0,0,0,6.457,1.843,12.118,12.118,0,0,0,8.626-3.573,12.121,12.121,0,0,0,3.572-8.626,12.122,12.122,0,0,0-3.573-8.626A12.12,12.12,0,0,0-390.9-551.977Zm0,19.733h0a7.488,7.488,0,0,1-5.33-2.2,7.488,7.488,0,0,1-2.2-5.331,7.486,7.486,0,0,1,2.2-5.33,7.487,7.487,0,0,1,5.33-2.2,7.487,7.487,0,0,1,5.33,2.2,7.548,7.548,0,0,1,0,10.661A7.487,7.487,0,0,1-390.9-532.245Z" transform="translate(500.858 642.078)"/></g></svg>