<svg xmlns="http://www.w3.org/2000/svg" xmlns:xlink="http://www.w3.org/1999/xlink" viewBox="0 0 140 140"><defs><style>.a{fill:url(#a);}.b,.c,.d{fill:#fff;}.c{opacity:0.75;}.d{opacity:0.5;}</style><linearGradient id="a" x1="1" x2="0" y2="1" gradientUnits="objectBoundingBox"><stop offset="0" stop-color="#ff7f64"/><stop offset="0.686" stop-color="#ffb37c"/><stop offset="1" stop-color="#fff198"/></linearGradient></defs><g transform="translate(-1 -1)"><path class="a" d="M23.333,0h93.333A23.333,23.333,0,0,1,140,23.333v93.333A23.333,23.333,0,0,1,116.667,140H23.333A23.333,23.333,0,0,1,0,116.667V23.333A23.333,23.333,0,0,1,23.333,0Z" transform="translate(1 1)"/><g transform="translate(-6.953 -6.196)"><rect class="b" width="47.254" height="47.254" rx="5" transform="translate(55.598 71.002)"/><rect class="c" width="47.254" height="47.254" rx="5" transform="matrix(0.966, 0.259, -0.259, 0.966, 77.876, 50.334)"/><rect class="d" width="47.254" height="47.254" rx="5" transform="matrix(0.966, -0.259, 0.259, 0.966, 31.386, 48.388)"/></g></g></svg>