<svg xmlns="http://www.w3.org/2000/svg" xmlns:xlink="http://www.w3.org/1999/xlink" viewBox="0 0 140 140"><defs><style>.a{fill:url(#a);}.b{opacity:0.5;}.b,.c{fill:url(#b);}</style><linearGradient id="a" x1="1" x2="0" y2="1" gradientUnits="objectBoundingBox"><stop offset="0" stop-color="#75e9b3"/><stop offset="0.644" stop-color="#bdf0b4"/><stop offset="1" stop-color="#f6f6b5"/></linearGradient><linearGradient id="b" x1="0.5" x2="0.5" y2="1" gradientUnits="objectBoundingBox"><stop offset="0" stop-color="#fff"/><stop offset="1" stop-color="#fff" stop-opacity="0.902"/></linearGradient></defs><g transform="translate(0 0)"><path class="a" d="M23.333,0h93.333A23.333,23.333,0,0,1,140,23.333v93.333A23.333,23.333,0,0,1,116.667,140H23.333A23.333,23.333,0,0,1,0,116.667V23.333A23.333,23.333,0,0,1,23.333,0Z" transform="translate(0)"/><g transform="translate(33.432 30.102)"><path class="b" d="M69.5,60.182c0,7.519-67.479,8.491-67.479,0L1.935-3.748C1.935-8.924,69-3.922,69,6.514Z" transform="translate(5.072 5.808)"/><path class="c" d="M32.3,72a145.55,145.55,0,0,1-22.233-1.461C3.537,69.466.088,67.894.088,65.991L0,2.06C0,1.383,1.133.859,3.37.5A60.216,60.216,0,0,1,12.14,0,205.469,205.469,0,0,1,46.846,3.31,75.433,75.433,0,0,1,61.2,7.189c3.891,1.616,5.864,3.343,5.864,5.133l.507,53.669C67.567,69.894,49.394,72,32.3,72Zm9.03-20.923a.994.994,0,0,0-.707.293l-.782.783a1,1,0,0,0,0,1.414l5.177,5.177a1,1,0,0,0,1.414,0l.4-.4.045-.042,9.887-9.886a1.553,1.553,0,1,0-2.2-2.2L45.72,55.058l-3.687-3.688A.994.994,0,0,0,41.325,51.076Zm0-14.439a.994.994,0,0,0-.707.293l-.782.783a1,1,0,0,0,0,1.414L45.013,44.3a1,1,0,0,0,1.414,0l.4-.4.045-.043,9.887-9.886a1.553,1.553,0,1,0-2.2-2.2L45.72,40.619l-3.687-3.688A.994.994,0,0,0,41.325,36.638Z" transform="translate(0 7.008)"/></g></g></svg>