<svg xmlns="http://www.w3.org/2000/svg" xmlns:xlink="http://www.w3.org/1999/xlink" viewBox="0 0 140 140"><defs><style>.a{fill:url(#a);}.b,.d{fill:#fff;}.b{opacity:0.75;}.c{fill:url(#b);}.d{opacity:0.5;}</style><linearGradient id="a" x1="1" x2="0" y2="1" gradientUnits="objectBoundingBox"><stop offset="0" stop-color="#bf8ff5"/><stop offset="0.699" stop-color="#bdc4fa"/><stop offset="1" stop-color="#bbe9fe"/></linearGradient><linearGradient id="b" x1="0.5" x2="0.5" y2="1" gradientUnits="objectBoundingBox"><stop offset="0" stop-color="#fff"/><stop offset="1" stop-color="#fff" stop-opacity="0.902"/></linearGradient></defs><g transform="translate(0 0)"><path class="a" d="M23.333,0h93.333A23.333,23.333,0,0,1,140,23.333v93.333A23.333,23.333,0,0,1,116.667,140H23.333A23.333,23.333,0,0,1,0,116.667V23.333A23.333,23.333,0,0,1,23.333,0Z" transform="translate(0)"/><g transform="translate(35.155 37.176)"><path class="b" d="M1.924,13.944C1.924,6.088,5.164,3,9.028,3H26.52l7,10.5L1.924,16.065Z" transform="translate(-1.902 -3)"/><path class="c" d="M72.005,56.64c0,7.8-69.967,8.8-69.967,0L1.909,11.167c0-5.367,70.1-2.038,70.1,8.782Z" transform="translate(-1.909 0.748)"/><path class="d" d="M46.426,14.946,37.268,3H26.52l7,10.5L1.924,16.065Z" transform="translate(-1.902 -3)"/></g></g></svg>