<svg xmlns="http://www.w3.org/2000/svg" xmlns:xlink="http://www.w3.org/1999/xlink" viewBox="0 0 140 140"><defs><style>.a{fill:url(#a);}.b,.c{fill:#fff;}.b{opacity:0.75;}</style><linearGradient id="a" x1="1" x2="0" y2="1" gradientUnits="objectBoundingBox"><stop offset="0" stop-color="#6abeff"/><stop offset="1" stop-color="#bdf8e6"/></linearGradient></defs><g transform="translate(0 0)"><path class="a" d="M23.333,0h93.333A23.333,23.333,0,0,1,140,23.333v93.333A23.333,23.333,0,0,1,116.667,140H23.333A23.333,23.333,0,0,1,0,116.667V23.333A23.333,23.333,0,0,1,23.333,0Z"/><g transform="translate(21.914 31.675)"><g transform="translate(0 0)"><path class="b" d="M28.231,66.694l-2.6-8.773A25.072,25.072,0,0,1,22.7,56.709l-8.04,4.366c-1.137.3-2.525-1.029-4.306-2.81-.142-.143-.287-.287-.435-.436C7.931,55.838,6.355,54.3,6.679,53.09l4.365-8.042a25.08,25.08,0,0,1-1.213-2.928l-8.771-2.6C-.042,38.886,0,36.694,0,33.876s-.022-5.021,1.059-5.646l8.771-2.6A25.051,25.051,0,0,1,11.044,22.7L6.679,14.663C6.35,13.435,7.93,11.914,9.923,9.922s3.534-3.565,4.74-3.243L22.7,11.043a25.07,25.07,0,0,1,2.926-1.212l2.6-8.772C28.866-.042,31.06,0,33.876,0S38.9-.022,39.523,1.059l2.6,8.771a25.084,25.084,0,0,1,2.928,1.213L53.09,6.679c1.228-.329,2.749,1.251,4.741,3.243s3.568,3.537,3.244,4.742L56.71,22.7a25.056,25.056,0,0,1,1.213,2.929l8.771,2.6c1.1.635,1.058,2.829,1.058,5.646s.023,5.023-1.058,5.647l-8.771,2.6a25.059,25.059,0,0,1-1.213,2.928l4.365,8.042c.329,1.227-1.253,2.748-3.244,4.739S54.3,61.4,53.09,61.075l-8.04-4.366a25.094,25.094,0,0,1-2.929,1.213l-2.6,8.772c-.589,1.02-2.513,1.058-5.032,1.058h-.962C30.879,67.752,28.829,67.731,28.231,66.694ZM20.115,33.876A13.762,13.762,0,1,0,33.876,20.114,13.777,13.777,0,0,0,20.115,33.876Z"/><path class="c" d="M22.612,45.226A22.613,22.613,0,0,1,6.623,6.623,22.613,22.613,0,1,1,38.6,38.6,22.465,22.465,0,0,1,22.612,45.226Zm0-34.862A12.249,12.249,0,1,0,34.862,22.612,12.262,12.262,0,0,0,22.612,10.364Z" transform="translate(11.264 11.264)"/></g><g transform="translate(55.761 43.675) rotate(-23)"><path class="b" d="M14.814,35l-1.364-4.6a13.155,13.155,0,0,1-1.536-.636L7.694,32.048c-.6.159-1.325-.54-2.259-1.474l-.228-.229C4.162,29.3,3.335,28.491,3.5,27.858l2.29-4.22A13.152,13.152,0,0,1,5.158,22.1l-4.6-1.363C-.022,20.405,0,19.255,0,17.776s-.012-2.635.556-2.962l4.6-1.364A13.144,13.144,0,0,1,5.8,11.913L3.5,7.694c-.172-.644.657-1.443,1.7-2.488S7.062,3.336,7.694,3.5l4.22,2.29a13.158,13.158,0,0,1,1.536-.636l1.364-4.6C15.147-.022,16.3,0,17.776,0s2.636-.012,2.963.556l1.363,4.6a13.16,13.16,0,0,1,1.536.636l4.22-2.29c.644-.172,1.443.657,2.488,1.7s1.872,1.856,1.7,2.488l-2.29,4.218a13.146,13.146,0,0,1,.637,1.537L35,14.814c.577.333.555,1.484.555,2.962s.012,2.636-.555,2.963l-4.6,1.363a13.152,13.152,0,0,1-.636,1.536l2.29,4.22c.172.644-.657,1.442-1.7,2.487s-1.855,1.873-2.488,1.7l-4.219-2.291a13.171,13.171,0,0,1-1.537.636L20.739,35c-.309.535-1.318.555-2.64.555h-.5C16.2,35.552,15.128,35.541,14.814,35ZM10.555,17.776a7.221,7.221,0,1,0,7.221-7.222A7.23,7.23,0,0,0,10.555,17.776Z"/><path class="c" d="M11.866,23.732A11.866,11.866,0,0,1,3.475,3.475,11.866,11.866,0,1,1,20.256,20.256,11.788,11.788,0,0,1,11.866,23.732Zm0-18.293a6.427,6.427,0,1,0,6.428,6.427A6.434,6.434,0,0,0,11.866,5.438Z" transform="translate(5.911 5.91)"/></g></g></g></svg>